<?xml version="1.0" encoding="UTF-8"?>
<svg id="Layer_2" data-name="Layer 2" xmlns="http://www.w3.org/2000/svg" viewBox="0 0 67.76 8.72">
  <defs>
    <style>
      .cls-1 {
        fill: #fff;
        stroke-width: 0px;
      }
    </style>
  </defs>
  <g id="Layer_1-2" data-name="Layer 1">
    <path class="cls-1" d="M23.41,6.69c-.14.4-.34.74-.62,1.04s-.63.54-1.06.72c-.43.18-.93.27-1.52.27s-1.09-.09-1.52-.27c-.43-.18-.78-.42-1.06-.72s-.48-.65-.62-1.04c-.14-.4-.2-.81-.2-1.24s.07-.84.2-1.24c.14-.39.34-.74.62-1.04.28-.3.63-.54,1.06-.72.43-.18.93-.27,1.52-.27s1.09.09,1.52.27c.43.18.78.42,1.06.72.28.3.48.65.62,1.04.14.39.2.8.2,1.24s-.07.85-.2,1.24ZM21.21,4.93c-.02-.18-.07-.34-.14-.49-.07-.15-.18-.27-.31-.37-.14-.1-.32-.15-.54-.15s-.4.05-.54.15c-.14.1-.24.22-.31.37-.07.15-.12.31-.14.49-.02.18-.03.35-.03.52s.01.34.03.52c.02.18.07.35.14.5.07.15.18.28.31.38.14.1.32.15.54.15s.4-.05.54-.15c.14-.1.24-.23.31-.38.07-.15.12-.32.14-.5.02-.18.03-.35.03-.52s0-.34-.03-.52Z"/>
    <path class="cls-1" d="M24.07,2.34h2.29v.79h.02c.22-.31.5-.55.82-.71.32-.16.73-.24,1.21-.24.28,0,.55.04.8.13s.48.22.68.39c.2.17.36.39.47.65.12.26.17.58.17.94v4.27h-2.38v-3.26c0-.18,0-.34-.02-.49s-.05-.28-.11-.39c-.06-.11-.13-.19-.23-.25-.1-.06-.24-.09-.41-.09-.1,0-.21.02-.32.05-.11.03-.21.09-.31.18-.09.09-.17.21-.23.37-.06.16-.09.36-.09.61v3.29h-2.38V2.34Z"/>
    <path class="cls-1" d="M37.75,8.57h-2.29v-.79h-.02c-.22.31-.5.55-.82.71-.32.16-.73.24-1.21.24-.28,0-.55-.04-.8-.13-.26-.09-.48-.22-.68-.39s-.36-.39-.47-.65c-.12-.26-.17-.58-.17-.94V2.34h2.38v3.26c0,.18,0,.35.02.5.02.15.05.28.1.38s.13.19.23.25c.1.06.24.09.42.09.1,0,.21-.02.32-.05s.21-.09.31-.18c.09-.09.17-.21.23-.37s.09-.36.09-.61v-3.29h2.38v6.23Z"/>
    <path class="cls-1" d="M38.46,2.34h2.29v.83h.02c.24-.36.53-.61.88-.76.34-.15.73-.22,1.16-.22.34,0,.66.08.98.25.32.17.55.41.7.72.02-.02.08-.08.16-.18.08-.1.2-.21.36-.33s.37-.22.64-.32c.26-.09.59-.14.97-.14s.74.06,1.01.19c.27.12.49.29.66.49s.29.43.36.68c.07.25.11.5.11.75v4.27h-2.38v-3.38c0-.14,0-.29-.02-.42-.01-.14-.05-.26-.1-.36-.06-.1-.14-.19-.24-.25-.1-.06-.24-.09-.42-.09-.3,0-.51.1-.63.31-.12.21-.17.48-.17.81v3.38h-2.38v-3.38c0-.14,0-.29-.02-.42-.01-.14-.05-.26-.1-.36-.06-.1-.14-.19-.24-.25-.1-.06-.24-.09-.42-.09-.3,0-.51.1-.63.31-.12.21-.17.48-.17.81v3.38h-2.38V2.34Z"/>
    <path class="cls-1" d="M51.45,5.99c.03.36.15.65.35.88.2.22.49.34.86.34.19,0,.38-.04.57-.11.19-.07.33-.18.43-.34h2.22c-.12.34-.29.63-.5.88-.22.25-.47.45-.75.61-.28.16-.59.28-.92.36s-.67.12-1.03.12c-.5,0-.96-.07-1.39-.22-.43-.14-.8-.35-1.11-.63-.31-.28-.56-.62-.73-1.02s-.26-.87-.26-1.39c0-.46.08-.88.23-1.28.16-.4.38-.74.67-1.04.29-.3.63-.54,1.04-.71.4-.17.85-.26,1.35-.26.62,0,1.15.08,1.6.25.45.17.82.41,1.1.74.29.32.5.72.64,1.19.14.47.2,1.01.2,1.62h-4.56ZM53.73,4.75c0-.29-.1-.53-.29-.74-.2-.2-.45-.31-.75-.31-.36,0-.64.09-.84.27-.2.18-.33.44-.38.77h2.27Z"/>
    <path class="cls-1" d="M56.43,2.34h2.29v.79h.02c.22-.31.5-.55.82-.71.32-.16.73-.24,1.21-.24.28,0,.55.04.8.13s.48.22.68.39c.2.17.36.39.47.65.12.26.17.58.17.94v4.27h-2.38v-3.26c0-.18,0-.34-.02-.49s-.05-.28-.11-.39c-.06-.11-.13-.19-.23-.25-.1-.06-.24-.09-.41-.09-.1,0-.21.02-.32.05-.11.03-.21.09-.31.18-.09.09-.17.21-.23.37-.06.16-.09.36-.09.61v3.29h-2.38V2.34Z"/>
    <path class="cls-1" d="M66.49,2.34h1.27v1.46h-1.27v2.17c0,.29.05.5.14.63.09.13.29.2.59.2.18,0,.36-.01.54-.04v1.8c-.24,0-.49.01-.75.04-.26.02-.52.04-.77.04s-.51-.02-.76-.05c-.25-.03-.48-.11-.68-.24-.2-.13-.36-.32-.49-.56s-.19-.58-.19-1.01v-2.98h-1.06v-1.46h1.06V.44h2.38v1.9Z"/>
    <g>
      <polygon class="cls-1" points="12.58 0 11.36 5.04 11.34 5.04 10.11 0 6.36 0 6.36 .24 8.85 7.1 8.85 3.07 8.88 3.07 10.36 8.57 12.33 8.57 13.82 3.07 13.84 3.07 13.84 8.57 16.34 8.57 16.34 0 12.58 0"/>
      <polygon class="cls-1" points="6.36 3.16 6.36 8.57 8.32 8.57 6.36 3.16"/>
    </g>
    <path class="cls-1" d="M3.16,0h2.58l3.12,8.57h-2.74l-.36-1.22h-2.72l-.38,1.22H0L3.16,0ZM5.23,5.51l-.77-2.64h-.02l-.83,2.64h1.62Z"/>
  </g>
</svg>