<?xml version="1.0" encoding="utf-8"?>
<!-- Generator: Adobe Illustrator 27.9.0, SVG Export Plug-In . SVG Version: 6.00 Build 0)  -->
<svg version="1.1" id="Layer_2_00000029045392944730019410000002114738047401899705_"
	 xmlns="http://www.w3.org/2000/svg" xmlns:xlink="http://www.w3.org/1999/xlink" x="0px" y="0px" viewBox="0 0 454.3 112.2"
	 style="enable-background:new 0 0 454.3 112.2;" xml:space="preserve">
<style type="text/css">
	.st0{enable-background:new    ;}
	.st1{fill:#EAECED;}
	.st2{fill:#A3CAE9;}
</style>
<g class="st0">
	<path class="st1" d="M64.5,110.1H51.4l-3-22.3c-0.2-1.6-0.4-3.3-0.6-5.2s-0.3-4-0.5-6.3c-0.3,2.2-1,4.9-1.9,8.2
		c-0.2,0.7-0.4,1.2-0.5,1.5l-7,24.1h-9.4l-7-24.1c-0.1-0.3-0.2-0.8-0.4-1.5c-1-3.3-1.6-6-1.9-8.1c-0.1,1.9-0.3,3.9-0.5,5.8
		c-0.2,1.9-0.4,3.8-0.7,5.7l-3,22.3H2l7.9-51.5h13.9l7.8,26.5c0,0.2,0.1,0.5,0.3,0.9c0.7,2.4,1.2,4.4,1.4,6.1c0.1-0.9,0.3-1.9,0.5-3
		c0.3-1.1,0.6-2.5,1.1-4l7.8-26.5h13.9L64.5,110.1z"/>
	<path class="st1" d="M124.9,84.4c0,3.7-0.7,7.2-2,10.4c-1.4,3.2-3.3,6.1-5.9,8.7c-2.6,2.5-5.6,4.5-9,5.9s-6.9,2.1-10.5,2.1
		c-3.7,0-7.2-0.7-10.6-2.1c-3.4-1.4-6.3-3.3-8.9-5.9c-2.6-2.6-4.7-5.5-6-8.7s-2.1-6.7-2.1-10.4c0-3.7,0.7-7.1,2.1-10.4
		s3.4-6.1,6-8.7c2.6-2.5,5.5-4.5,8.9-5.9c3.4-1.4,6.9-2.1,10.6-2.1c3.7,0,7.2,0.7,10.6,2.1c3.4,1.4,6.4,3.3,8.9,5.9
		c2.6,2.5,4.6,5.4,5.9,8.7S124.9,80.8,124.9,84.4z M97.4,99.6c3.9,0,7.1-1.4,9.7-4.3c2.5-2.9,3.8-6.5,3.8-10.8
		c0-4.3-1.3-7.9-3.9-10.8c-2.6-2.9-5.8-4.3-9.6-4.3c-3.9,0-7.1,1.4-9.7,4.3c-2.5,2.9-3.8,6.5-3.8,10.8c0,4.4,1.3,8,3.8,10.9
		C90.2,98.1,93.5,99.6,97.4,99.6z"/>
	<path class="st1" d="M133.7,110.1V58.6h13.5l19.4,26.5c0.4,0.5,1,1.6,1.8,3.3c0.9,1.6,1.8,3.6,2.8,5.8c-0.3-2.1-0.5-4-0.6-5.7
		c-0.1-1.7-0.2-3.1-0.2-4.4V58.6H184v51.5h-13.5l-19.4-26.6c-0.4-0.5-1-1.6-1.9-3.3c-0.9-1.6-1.8-3.5-2.8-5.7
		c0.3,2.2,0.5,4.1,0.6,5.7c0.1,1.7,0.2,3.1,0.2,4.4v25.4H133.7z"/>
	<path class="st1" d="M194.7,58.6h14v25c0,3.7,0.1,6.3,0.3,7.9c0.2,1.6,0.5,2.9,0.9,4c0.5,1.3,1.5,2.3,2.8,3s3,1,4.9,1
		c1.9,0,3.5-0.3,4.9-1c1.3-0.7,2.3-1.7,2.8-3c0.4-1.1,0.8-2.4,0.9-4c0.2-1.6,0.3-4.2,0.3-7.9v-3.5V58.6h14v27.2
		c0,5.6-0.3,9.8-1,12.5s-1.8,5-3.4,6.9c-1.8,2.1-4.2,3.7-7.2,4.7c-3.1,1-6.8,1.6-11.2,1.6c-4.4,0-8.1-0.5-11.2-1.6s-5.5-2.6-7.3-4.7
		c-1.6-1.9-2.7-4.2-3.4-6.9c-0.7-2.7-1-6.8-1-12.5v-5.3V58.6z"/>
	<path class="st1" d="M310.2,110.1h-13.1l-3-22.3c-0.2-1.6-0.4-3.3-0.6-5.2s-0.3-4-0.5-6.3c-0.3,2.2-1,4.9-1.9,8.2
		c-0.2,0.7-0.4,1.2-0.5,1.5l-7,24.1h-9.4l-7-24.1c-0.1-0.3-0.2-0.8-0.4-1.5c-1-3.3-1.6-6-1.9-8.1c-0.1,1.9-0.3,3.9-0.5,5.8
		s-0.4,3.8-0.7,5.7l-3,22.3h-13l7.9-51.5h13.9l7.8,26.5c0,0.2,0.1,0.5,0.3,0.9c0.7,2.4,1.2,4.4,1.4,6.1c0.1-0.9,0.3-1.9,0.5-3
		s0.6-2.5,1.1-4l7.8-26.5h13.9L310.2,110.1z"/>
	<path class="st1" d="M317.8,110.1V58.6h31.5v11.3h-17.9v8.9h16.8v11h-16.8v8.7h17.9v11.5H317.8z"/>
	<path class="st1" d="M358.6,110.1V58.6h13.5l19.4,26.5c0.4,0.5,1,1.6,1.8,3.3s1.8,3.6,2.8,5.8c-0.3-2.1-0.5-4-0.6-5.7
		s-0.2-3.1-0.2-4.4V58.6h13.5v51.5h-13.5L376,83.5c-0.4-0.5-1-1.6-1.9-3.3s-1.8-3.5-2.8-5.7c0.3,2.2,0.5,4.1,0.6,5.7
		s0.2,3.1,0.2,4.4v25.4H358.6z"/>
	<path class="st1" d="M427.4,110.1V70.8h-11.5V58.6h37.1v12.2h-11.5v39.3H427.4z"/>
</g>
<path class="st2" d="M13.4,37.1c2.1,2.4,4.1,4.1,6.2,5.3c2,1.2,4,1.8,6.1,1.8c1.9,0,3.4-0.5,4.6-1.5c1.2-1,1.8-2.3,1.8-3.8
	c0-1.7-0.5-3-1.6-4c-1-0.9-3.4-1.9-7.1-2.9c-5-1.4-8.6-3.1-10.7-5.3c-2.1-2.2-3.1-5.2-3.1-9c0-4.9,1.6-8.9,4.9-12
	C17.9,2.6,22.1,1,27.4,1c2.8,0,5.5,0.4,8.1,1.1c2.5,0.8,5,1.9,7.2,3.5l-4.4,10.1c-1.6-1.4-3.2-2.4-4.9-3.1c-1.7-0.7-3.3-1-5-1
	c-1.7,0-3.1,0.4-4.1,1.2s-1.6,1.8-1.6,3.1c0,1.3,0.5,2.3,1.4,3.1c0.9,0.8,2.7,1.5,5.4,2.2l0.6,0.2c5.7,1.5,9.5,3.2,11.3,5.1
	c1.2,1.3,2.1,2.8,2.8,4.6s0.9,3.7,0.9,5.9c0,5.5-1.8,9.8-5.4,13.2s-8.4,5-14.3,5c-3.6,0-6.9-0.6-9.8-1.8c-2.9-1.2-5.8-3.1-8.5-5.7
	L13.4,37.1L13.4,37.1z"/>
<path class="st2" d="M96.3,2.2l6.5,24.5c0.3,1.1,0.6,2.2,0.8,3.4c0.3,1.2,0.5,2.6,0.8,4.1c0.4-1.8,0.7-3.3,0.9-4.5s0.5-2.2,0.7-3
	l6-24.5h14.2l-14.6,51.5h-13l-6.4-22c-0.2-0.8-0.6-2.3-1.2-4.5c-0.2-1-0.4-1.8-0.6-2.4c-0.1,0.5-0.3,1.2-0.5,2.1
	c-0.5,2.3-0.9,3.9-1.2,4.8l-6.3,22h-13L55,2.2h14.2l5.9,24.6c0.3,1.3,0.6,2.5,0.8,3.8c0.3,1.3,0.5,2.6,0.8,3.9c0.2-1,0.4-2,0.7-3.1
	c0.2-1.1,0.6-2.6,1.1-4.6L85,2.2L96.3,2.2L96.3,2.2z"/>
<path class="st2" d="M139.7,53.7V2.2h14.2v51.5H139.7z"/>
<path class="st2" d="M170.4,53.7V2.2H202v11.3h-17.9v8.9H201v11h-16.8v20.2L170.4,53.7L170.4,53.7z"/>
<path class="st2" d="M226.3,53.7V14.4h-11.5V2.2h37.1v12.2h-11.5v39.3L226.3,53.7L226.3,53.7z"/>
</svg>
