<?xml version="1.0" encoding="UTF-8"?>
<svg id="Layer_2" data-name="Layer 2" xmlns="http://www.w3.org/2000/svg" viewBox="0 0 613.8125 48.0625">
  <defs>
    <style>
      .cls-1 {
        fill: #fff;
        stroke-width: 0px;
      }
    </style>
  </defs>
  <g id="Layer_1-2" data-name="Layer 1">
    <g>
      <path class="cls-1" d="m5.625,32.0625c1.854,2.1045,3.6821,3.6777,5.4844,4.7188,1.8018,1.042,3.5986,1.5625,5.3906,1.5625,1.6665,0,3.0361-.4473,4.1094-1.3438,1.0728-.8955,1.6094-2.0312,1.6094-3.4062,0-1.5205-.4639-2.6924-1.3906-3.5156-.9272-.8223-3.0264-1.6719-6.2969-2.5469-4.4795-1.208-7.646-2.7812-9.5-4.7188-1.8545-1.9375-2.7812-4.5938-2.7812-7.9688,0-4.375,1.4634-7.9424,4.3906-10.7031C9.5674,1.3809,13.3643,0,18.0312,0c2.5205,0,4.9111.3389,7.1719,1.0156,2.2603.6777,4.4009,1.7031,6.4219,3.0781l-3.9062,8.9688c-1.417-1.208-2.8701-2.1191-4.3594-2.7344-1.4897-.6143-2.9639-.9219-4.4219-.9219-1.5,0-2.7188.3594-3.6562,1.0781s-1.4062,1.6406-1.4062,2.7656c0,1.1465.4111,2.0625,1.2344,2.75.8228.6875,2.4111,1.3438,4.7656,1.9688l.5625.1562c5.083,1.375,8.4268,2.8857,10.0312,4.5312,1.083,1.125,1.9062,2.4746,2.4688,4.0469.5625,1.5732.8438,3.3184.8438,5.2344,0,4.8545-1.5938,8.7559-4.7812,11.7031-3.1875,2.9482-7.4375,4.4219-12.75,4.4219-3.1875,0-6.0889-.542-8.7031-1.625-2.6147-1.083-5.1304-2.7812-7.5469-5.0938l5.625-9.2812Z"/>
      <path class="cls-1" d="m71.9375,1.0938l5.75,21.75c.2705.9795.5205,2,.75,3.0625.229,1.0625.4688,2.2812.7188,3.6562.3125-1.625.5781-2.9629.7969-4.0156.2188-1.0518.4321-1.9531.6406-2.7031l5.375-21.75h12.5938l-12.9375,45.75h-11.5625l-5.6562-19.5312c-.2085-.6875-.5522-2.0312-1.0312-4.0312-.2085-.8955-.375-1.5938-.5-2.0938-.1045.4375-.25,1.0527-.4375,1.8438-.4795,2.0215-.8438,3.4482-1.0938,4.2812l-5.5625,19.5312h-11.5938L35.2812,1.0938h12.5938l5.25,21.875c.25,1.125.4946,2.25.7344,3.375.2393,1.125.4634,2.2812.6719,3.4688.1875-.875.3906-1.791.6094-2.75.2188-.958.5469-2.3223.9844-4.0938L61.875,1.0938h10.0625Z"/>
      <path class="cls-1" d="m103.1875,46.8438V1.0938h12.5938v45.75h-12.5938Z"/>
      <path class="cls-1" d="m125.8438,46.8438V1.0938h28.0312v10.0312h-15.875v7.9375h14.9688v9.8125h-14.9688v17.9688h-12.1562Z"/>
      <path class="cls-1" d="m167.25,46.8438V11.9062h-10.25V1.0938h32.9688v10.8125h-10.25v34.9375h-12.4688Z"/>
      <path class="cls-1" d="m268.5625,46.8438h-11.6562l-2.6875-19.7812c-.1875-1.3955-.3594-2.9473-.5156-4.6562-.1562-1.708-.2969-3.5723-.4219-5.5938-.292,1.9375-.8647,4.3545-1.7188,7.25-.1875.6045-.3232,1.0527-.4062,1.3438l-6.2188,21.4375h-8.3125l-6.2188-21.4375c-.0835-.291-.2085-.7393-.375-1.3438-.875-2.8955-1.4482-5.3018-1.7188-7.2188-.125,1.7295-.271,3.4434-.4375,5.1406-.167,1.6982-.3647,3.3906-.5938,5.0781l-2.6875,19.7812h-11.5938l7.0625-45.75h12.3438l6.9062,23.5938c.0415.167.125.4375.25.8125.6455,2.1045,1.0518,3.9062,1.2188,5.4062.083-.8125.2393-1.7129.4688-2.7031.229-.9893.5415-2.1816.9375-3.5781l6.9688-23.5312h12.375l7.0312,45.75Z"/>
      <path class="cls-1" d="m322.25,24.0625c0,3.292-.6045,6.375-1.8125,9.25-1.2085,2.875-2.9688,5.4482-5.2812,7.7188-2.3335,2.25-5,3.9844-8,5.2031s-6.1147,1.8281-9.3438,1.8281c-3.271,0-6.4014-.6094-9.3906-1.8281-2.9897-1.2188-5.6201-2.9531-7.8906-5.2031-2.3545-2.2705-4.1406-4.8535-5.3594-7.75-1.2188-2.8955-1.8281-5.9688-1.8281-9.2188,0-3.2705.6094-6.3486,1.8281-9.2344,1.2188-2.8848,3.0049-5.4629,5.3594-7.7344,2.2705-2.25,4.9009-3.9844,7.8906-5.2031,2.9893-1.2188,6.1196-1.8281,9.3906-1.8281,3.25,0,6.3799.6094,9.3906,1.8281,3.0103,1.2188,5.6611,2.9531,7.9531,5.2031,2.2915,2.25,4.0469,4.8232,5.2656,7.7188,1.2188,2.8965,1.8281,5.9795,1.8281,9.25Zm-24.4375,13.4375c3.458,0,6.3174-1.2705,8.5781-3.8125,2.2603-2.541,3.3906-5.75,3.3906-9.625,0-3.833-1.146-7.0312-3.4375-9.5938-2.292-2.5625-5.1357-3.8438-8.5312-3.8438-3.4585,0-6.3179,1.2764-8.5781,3.8281-2.2607,2.5527-3.3906,5.7559-3.3906,9.6094,0,3.917,1.1143,7.1357,3.3438,9.6562,2.229,2.5215,5.104,3.7812,8.625,3.7812Z"/>
      <path class="cls-1" d="m330.0625,46.8438V1.0938h12.0312l17.2812,23.5312c.333.4795.8799,1.4434,1.6406,2.8906.7603,1.4482,1.5986,3.1719,2.5156,5.1719-.25-1.8955-.4326-3.583-.5469-5.0625-.1147-1.4785-.1719-2.791-.1719-3.9375V1.0938h11.9688v45.75h-11.9688l-17.2812-23.625c-.3545-.4785-.9116-1.4424-1.6719-2.8906-.7607-1.4473-1.5889-3.1504-2.4844-5.1094.25,1.917.4321,3.6152.5469,5.0938.1143,1.4795.1719,2.792.1719,3.9375v22.5938h-12.0312Z"/>
      <path class="cls-1" d="m384.3125,1.0938h12.4375v22.25c0,3.2715.083,5.6201.25,7.0469.1665,1.4277.4478,2.6201.8438,3.5781.479,1.167,1.3125,2.0576,2.5,2.6719,1.1875.6152,2.6353.9219,4.3438.9219s3.1509-.3066,4.3281-.9219c1.1768-.6143,2.0156-1.5049,2.5156-2.6719.3955-.958.6768-2.1504.8438-3.5781.1665-1.4268.25-3.7754.25-7.0469V1.0938h12.4062v24.1875c0,5.0215-.3022,8.7246-.9062,11.1094-.6045,2.3857-1.625,4.4219-3.0625,6.1094-1.5625,1.8545-3.7085,3.2451-6.4375,4.1719-2.7295.9268-6.042,1.3906-9.9375,1.3906-3.917,0-7.2344-.4639-9.9531-1.3906s-4.8701-2.3174-6.4531-4.1719c-1.417-1.6875-2.4326-3.7236-3.0469-6.1094-.6147-2.3848-.9219-6.0879-.9219-11.1094V1.0938Z"/>
      <path class="cls-1" d="m486.9688,46.8438h-11.6562l-2.6875-19.7812c-.1875-1.3955-.3594-2.9473-.5156-4.6562-.1562-1.708-.2969-3.5723-.4219-5.5938-.292,1.9375-.8647,4.3545-1.7188,7.25-.1875.6045-.3232,1.0527-.4062,1.3438l-6.2188,21.4375h-8.3125l-6.2188-21.4375c-.0835-.291-.2085-.7393-.375-1.3438-.875-2.8955-1.4482-5.3018-1.7188-7.2188-.125,1.7295-.271,3.4434-.4375,5.1406-.167,1.6982-.3647,3.3906-.5938,5.0781l-2.6875,19.7812h-11.5938l7.0625-45.75h12.3438l6.9062,23.5938c.0415.167.125.4375.25.8125.6455,2.1045,1.0518,3.9062,1.2188,5.4062.083-.8125.2393-1.7129.4688-2.7031.229-.9893.5415-2.1816.9375-3.5781l6.9688-23.5312h12.375l7.0312,45.75Z"/>
      <path class="cls-1" d="m493.6875,46.8438V1.0938h28.0312v10.0312h-15.875v7.9375h14.9688v9.8125h-14.9688v7.7188h15.875v10.25h-28.0312Z"/>
      <path class="cls-1" d="m529.9688,46.8438V1.0938h12.0312l17.2812,23.5312c.333.4795.8799,1.4434,1.6406,2.8906.7607,1.4482,1.5986,3.1719,2.5156,5.1719-.25-1.8955-.4326-3.583-.5469-5.0625-.1143-1.4785-.1719-2.791-.1719-3.9375V1.0938h11.9688v45.75h-11.9688l-17.2812-23.625c-.3545-.4785-.9111-1.4424-1.6719-2.8906-.7607-1.4473-1.5889-3.1504-2.4844-5.1094.25,1.917.4326,3.6152.5469,5.0938.1143,1.4795.1719,2.792.1719,3.9375v22.5938h-12.0312Z"/>
      <path class="cls-1" d="m591.0938,46.8438V11.9062h-10.25V1.0938h32.9688v10.8125h-10.25v34.9375h-12.4688Z"/>
    </g>
  </g>
</svg>